<?xml version="1.0" encoding="UTF-8" standalone="no"?>
<!-- Created with Inkscape (http://www.inkscape.org/) -->

<svg
   xmlns:dc="http://purl.org/dc/elements/1.1/"
   xmlns:cc="http://creativecommons.org/ns#"
   xmlns:rdf="http://www.w3.org/1999/02/22-rdf-syntax-ns#"
   xmlns:svg="http://www.w3.org/2000/svg"
   xmlns="http://www.w3.org/2000/svg"
   xmlns:sodipodi="http://sodipodi.sourceforge.net/DTD/sodipodi-0.dtd"
   xmlns:inkscape="http://www.inkscape.org/namespaces/inkscape"
   width="33.072922mm"
   height="41.01041mm"
   viewBox="0 0 33.072918 41.010412"
   version="1.1"
   id="svg1718"
   inkscape:version="0.92.2 2405546, 2018-03-11"
   sodipodi:docname="enticement.svg">
  <defs
     id="defs1712" />
  <sodipodi:namedview
     id="base"
     pagecolor="#ffffff"
     bordercolor="#666666"
     borderopacity="1.0"
     inkscape:pageopacity="0.0"
     inkscape:pageshadow="2"
     inkscape:zoom="2.8"
     inkscape:cx="67.682461"
     inkscape:cy="39.016377"
     inkscape:document-units="px"
     inkscape:current-layer="layer1"
     showgrid="false"
     fit-margin-top="0"
     fit-margin-left="0"
     fit-margin-right="0"
     fit-margin-bottom="0"
     inkscape:window-width="960"
     inkscape:window-height="1052"
     inkscape:window-x="0"
     inkscape:window-y="0"
     inkscape:window-maximized="0"
     inkscape:snap-global="false" />
  <metadata
     id="metadata1715">
    <rdf:RDF>
      <cc:Work
         rdf:about="">
        <dc:format>image/svg+xml</dc:format>
        <dc:type
           rdf:resource="http://purl.org/dc/dcmitype/StillImage" />
        <dc:title />
      </cc:Work>
    </rdf:RDF>
  </metadata>
  <g
     inkscape:label="Layer 1"
     inkscape:groupmode="layer"
     id="layer1"
     transform="translate(-75.555164,-128.67109)">
    <g
       transform="translate(-80.464536,-126.99654)"
       style="stroke-width:0.13229167;stroke-miterlimit:4;stroke-dasharray:none;stroke:none;stroke-opacity:1"
       id="g5824-3-1">
      <rect
         style="opacity:1;vector-effect:none;fill:#ffffff;fill-opacity:1;stroke:none;stroke-width:0.13229167;stroke-linecap:round;stroke-linejoin:miter;stroke-miterlimit:4;stroke-dasharray:none;stroke-dashoffset:0;stroke-opacity:1;paint-order:markers stroke fill"
         id="rect5820-6-8"
         width="27.549011"
         height="8.7967224"
         x="160.22069"
         y="284.63135" />
      <path
         style="color:#000000;font-style:normal;font-variant:normal;font-weight:normal;font-stretch:normal;font-size:medium;line-height:normal;font-family:sans-serif;font-variant-ligatures:normal;font-variant-position:normal;font-variant-caps:normal;font-variant-numeric:normal;font-variant-alternates:normal;font-feature-settings:normal;text-indent:0;text-align:start;text-decoration:none;text-decoration-line:none;text-decoration-style:solid;text-decoration-color:#000000;letter-spacing:normal;word-spacing:normal;text-transform:none;writing-mode:lr-tb;direction:ltr;text-orientation:mixed;dominant-baseline:auto;baseline-shift:baseline;text-anchor:start;white-space:normal;shape-padding:0;clip-rule:nonzero;display:inline;overflow:visible;visibility:visible;opacity:1;isolation:auto;mix-blend-mode:normal;color-interpolation:sRGB;color-interpolation-filters:linearRGB;solid-color:#000000;solid-opacity:1;vector-effect:none;fill:#ff0b7d;fill-opacity:1;fill-rule:nonzero;stroke:none;stroke-width:2.64583325;stroke-linecap:round;stroke-linejoin:miter;stroke-miterlimit:4;stroke-dasharray:none;stroke-dashoffset:0;stroke-opacity:1;paint-order:markers stroke fill;color-rendering:auto;image-rendering:auto;shape-rendering:auto;text-rendering:auto;enable-background:accumulate"
         d="m 162.63428,255.66763 c -3.64159,0 -6.61458,2.97299 -6.61458,6.61458 v 27.78125 c 0,3.64159 2.97299,6.61458 6.61458,6.61458 h 23.8125 c 1.44291,0 2.64584,-1.20292 2.64584,-2.64583 v -0.6041 -0.71882 -6.87503 -1.20301 -26.31779 c 0,-1.4429 -1.20293,-2.64583 -2.64584,-2.64583 z m 0,2.64583 h 23.8125 v 26.31779 1.20301 6.87503 0.71882 0.6041 h -23.8125 c -2.22156,0 -3.96875,-1.74717 -3.96875,-3.96875 v -27.78125 c 0,-2.22157 1.74719,-3.96875 3.96875,-3.96875 z"
         id="rect5820-6-2-7"
         inkscape:connector-curvature="0" />
      <path
         style="opacity:1;vector-effect:none;fill:#ffa5cf;fill-opacity:1;stroke:none;stroke-width:0.13229167;stroke-linecap:round;stroke-linejoin:miter;stroke-miterlimit:4;stroke-dasharray:none;stroke-dashoffset:0;stroke-opacity:1;paint-order:markers stroke fill"
         d="m 162.63417,256.99055 c -2.93158,0 -5.29165,2.36009 -5.29165,5.29167 v 27.78125 c 0,2.93158 2.36007,5.29167 5.29165,5.29167 h 23.81262 c 0.73289,0 1.32291,-0.59002 1.32291,-1.32292 v -1.32292 c 0,-0.70604 -0.61101,-1.32291 -1.32291,-1.32291 H 163.4579 c -1.17054,0.003 -2.12038,-0.94665 -2.12038,-2.1172 0,-1.17051 0.94984,-2.11894 2.12038,-2.11717 h 22.98889 c 0.71487,0 1.32291,-0.6129 1.32291,-1.31773 v -27.52082 c 0,-0.7329 -0.59002,-1.32292 -1.32291,-1.32292 z"
         id="rect1865-0-2-6-9"
         inkscape:connector-curvature="0"
         sodipodi:nodetypes="cssccscccscccccc" />
    </g>
    <path
       style="fill:#bcf8eb;fill-opacity:1;stroke:#35d5d5;stroke-width:2.64583325;stroke-linecap:butt;stroke-linejoin:round;stroke-miterlimit:4;stroke-dasharray:none;stroke-opacity:1;paint-order:markers stroke fill"
       d="m 84.463337,137.81004 c -1.235707,5.16297 -2.60959,14.66528 0.155579,15.98431 3.292969,1.5708 6.239164,-1.62403 4.42165,-3.83233 -4.374187,-5.31469 -4.254195,-8.08381 -4.577229,-12.15198 z"
       id="path976"
       inkscape:connector-curvature="0"
       sodipodi:nodetypes="cssc" />
    <path
       style="fill:#ddbff8;fill-opacity:1;stroke:#a96de5;stroke-width:2.64583325;stroke-linecap:butt;stroke-linejoin:round;stroke-miterlimit:4;stroke-dasharray:none;stroke-opacity:1;paint-order:markers stroke fill"
       d="m 92.549002,135.65677 c 3.428561,1.22382 6.476937,3.29932 9.444648,6.35765 2.97757,3.54291 -2.379532,6.16565 -3.904999,3.20911 -1.460575,-2.98328 -2.204003,-6.499 -5.539649,-9.56676 z"
       id="path980"
       inkscape:connector-curvature="0"
       sodipodi:nodetypes="cccc" />
    <path
       style="fill:#d7eeff;fill-opacity:1;stroke:#28a6ff;stroke-width:2.64583325;stroke-linecap:butt;stroke-linejoin:round;stroke-miterlimit:4;stroke-dasharray:none;stroke-opacity:1;paint-order:markers stroke fill"
       d="m 89.366574,139.54464 c 2.633635,6.58413 0.797158,13.35068 3.960753,14.96122 0.944466,0.48081 3.160951,0.1265 3.838132,-0.24931 0.785243,-0.43579 2.212786,-1.90679 1.89437,-3.3258 -0.989289,-4.40874 -6.024927,-5.36213 -9.693255,-11.38611 z"
       id="path978"
       inkscape:connector-curvature="0"
       sodipodi:nodetypes="csssc" />
  </g>
</svg>
