<?xml version="1.0" encoding="UTF-8" standalone="no"?>
<!-- Created with Inkscape (http://www.inkscape.org/) -->

<svg
   xmlns:dc="http://purl.org/dc/elements/1.1/"
   xmlns:cc="http://creativecommons.org/ns#"
   xmlns:rdf="http://www.w3.org/1999/02/22-rdf-syntax-ns#"
   xmlns:svg="http://www.w3.org/2000/svg"
   xmlns="http://www.w3.org/2000/svg"
   xmlns:sodipodi="http://sodipodi.sourceforge.net/DTD/sodipodi-0.dtd"
   xmlns:inkscape="http://www.inkscape.org/namespaces/inkscape"
   width="39.6875mm"
   height="47.624992mm"
   viewBox="0 0 39.687496 47.624994"
   version="1.1"
   id="svg1718"
   inkscape:version="0.92.2 2405546, 2018-03-11"
   sodipodi:docname="placeholder.svg">
  <defs
     id="defs1712" />
  <sodipodi:namedview
     id="base"
     pagecolor="#ffffff"
     bordercolor="#666666"
     borderopacity="1.0"
     inkscape:pageopacity="0.0"
     inkscape:pageshadow="2"
     inkscape:zoom="1.979899"
     inkscape:cx="171.25738"
     inkscape:cy="61.404548"
     inkscape:document-units="px"
     inkscape:current-layer="layer1"
     showgrid="false"
     fit-margin-top="0"
     fit-margin-left="0"
     fit-margin-right="0"
     fit-margin-bottom="0"
     inkscape:window-width="1920"
     inkscape:window-height="1052"
     inkscape:window-x="0"
     inkscape:window-y="0"
     inkscape:window-maximized="1"
     inkscape:snap-global="false" />
  <metadata
     id="metadata1715">
    <rdf:RDF>
      <cc:Work
         rdf:about="">
        <dc:format>image/svg+xml</dc:format>
        <dc:type
           rdf:resource="http://purl.org/dc/dcmitype/StillImage" />
        <dc:title></dc:title>
      </cc:Work>
    </rdf:RDF>
  </metadata>
  <g
     inkscape:label="Layer 1"
     inkscape:groupmode="layer"
     id="layer1"
     transform="translate(-87.013503,-120.79471)">
    <g
       transform="translate(-69.006197,-128.25835)"
       style="stroke-width:0.13229167;stroke-miterlimit:4;stroke-dasharray:none"
       id="g5824-1-8-3">
      <rect
         style="opacity:1;vector-effect:none;fill:#ffffff;fill-opacity:1;stroke:none;stroke-width:0.13229167;stroke-linecap:round;stroke-linejoin:miter;stroke-miterlimit:4;stroke-dasharray:none;stroke-dashoffset:0;stroke-opacity:1;paint-order:markers stroke fill"
         id="rect5820-9-4-6"
         width="34.15049"
         height="8.7967348"
         x="160.22069"
         y="284.63135" />
      <path
         inkscape:connector-curvature="0"
         id="rect5820-7-4-5-1"
         d="m 162.63428,249.05306 c -3.64162,0 -6.61458,2.97299 -6.61458,6.61458 v 34.39583 c 0,3.6416 2.97296,6.61458 6.61458,6.61458 h 10.66858 15.78975 3.96875 c 1.44288,0 2.64584,-1.20289 2.64584,-2.64583 v -1.32292 c 0,-0.0721 -0.008,-0.11804 -0.0129,-0.17673 v -6.52105 c 0.005,-0.0589 0.0129,-0.10561 0.0129,-0.17725 v -30.16663 -3.96875 c 0,-1.44294 -1.20293,-2.64583 -2.64584,-2.64583 h -3.96875 -15.78975 z m 0,2.64583 h 10.66858 15.78975 3.96875 v 3.96875 30.16663 c 0,-0.0274 0.002,-0.0335 -5.3e-4,-0.0134 l -0.0124,0.0899 v 6.72259 l 0.0124,0.0894 c 0.003,0.021 5.3e-4,0.0154 5.3e-4,-0.0134 v 1.32292 h -3.96875 -15.78975 -10.66858 c -2.22157,0 -3.96875,-1.74718 -3.96875,-3.96875 V 255.6677 c 0,-2.22156 1.74718,-3.96875 3.96875,-3.96875 z"
         style="color:#000000;font-style:normal;font-variant:normal;font-weight:normal;font-stretch:normal;font-size:medium;line-height:normal;font-family:sans-serif;font-variant-ligatures:normal;font-variant-position:normal;font-variant-caps:normal;font-variant-numeric:normal;font-variant-alternates:normal;font-feature-settings:normal;text-indent:0;text-align:start;text-decoration:none;text-decoration-line:none;text-decoration-style:solid;text-decoration-color:#000000;letter-spacing:normal;word-spacing:normal;text-transform:none;writing-mode:lr-tb;direction:ltr;text-orientation:mixed;dominant-baseline:auto;baseline-shift:baseline;text-anchor:start;white-space:normal;shape-padding:0;clip-rule:nonzero;display:inline;overflow:visible;visibility:visible;opacity:1;isolation:auto;mix-blend-mode:normal;color-interpolation:sRGB;color-interpolation-filters:linearRGB;solid-color:#000000;solid-opacity:1;vector-effect:none;fill:#d108ff;fill-opacity:1;fill-rule:nonzero;stroke:none;stroke-width:2.64583325;stroke-linecap:round;stroke-linejoin:miter;stroke-miterlimit:4;stroke-dasharray:none;stroke-dashoffset:0;stroke-opacity:1;paint-order:markers stroke fill;color-rendering:auto;image-rendering:auto;shape-rendering:auto;text-rendering:auto;enable-background:accumulate" />
      <path
         style="opacity:1;vector-effect:none;fill:#ffdaff;fill-opacity:1;stroke:none;stroke-width:0.13229167;stroke-linecap:round;stroke-linejoin:miter;stroke-miterlimit:4;stroke-dasharray:none;stroke-dashoffset:0;stroke-opacity:1;paint-order:markers stroke fill"
         d="m 162.63417,250.37597 c -2.93158,0 -5.29165,2.36009 -5.29165,5.29167 v 34.39583 c 0,2.93158 2.36007,5.29167 5.29165,5.29167 h 10.6686 15.78974 3.96875 c 0.73289,0 1.32291,-0.59002 1.32291,-1.32292 v -1.32292 c 0,-0.70604 -0.61101,-1.32291 -1.32291,-1.32291 H 163.4579 c -1.17054,0.003 -2.12038,-0.94665 -2.12038,-2.1172 0,-1.17051 0.94984,-2.11894 2.12038,-2.11717 h 29.60336 c 0.71487,0 1.32291,-0.6129 1.32291,-1.31773 v -30.16665 -3.96875 c 0,-0.7329 -0.59002,-1.32292 -1.32291,-1.32292 h -3.96875 -15.78974 z"
         id="rect1865-0-2-7-0-0"
         inkscape:connector-curvature="0"
         sodipodi:nodetypes="ssssccsscccsccccssccs" />
    </g>
  </g>
</svg>
